<svg xmlns="http://www.w3.org/2000/svg" xmlns:xlink="http://www.w3.org/1999/xlink" width="160" zoomAndPan="magnify" viewBox="0 0 120 119.999999" height="160" preserveAspectRatio="xMidYMid meet" version="1.0"><defs><g/><clipPath id="cdfb570a55"><path d="M 41 58 L 52 58 L 52 68.457031 L 41 68.457031 Z M 41 58 " clip-rule="nonzero"/></clipPath><clipPath id="da11d8a224"><path d="M 37.058594 39 L 64 39 L 64 65 L 37.058594 65 Z M 37.058594 39 " clip-rule="nonzero"/></clipPath><clipPath id="6ec71213da"><path d="M 67 34.707031 L 78 34.707031 L 78 45 L 67 45 Z M 67 34.707031 " clip-rule="nonzero"/></clipPath><clipPath id="ce77728fdf"><path d="M 55 38 L 81.308594 38 L 81.308594 64 L 55 64 Z M 55 38 " clip-rule="nonzero"/></clipPath></defs><rect x="-12" width="144" fill="#ffffff" y="-12" height="143.999998" fill-opacity="1"/><rect x="-12" width="144" fill="#001f3f" y="-12" height="143.999998" fill-opacity="1"/><g clip-path="url(#cdfb570a55)"><path fill="#c0c0c0" d="M 46.214844 58.332031 C 49.042969 58.332031 51.339844 60.597656 51.339844 63.394531 C 51.339844 66.191406 49.042969 68.457031 46.214844 68.457031 C 43.382812 68.457031 41.085938 66.191406 41.085938 63.394531 C 41.085938 60.597656 43.382812 58.332031 46.214844 58.332031 " fill-opacity="1" fill-rule="nonzero"/></g><g clip-path="url(#da11d8a224)"><path fill="#c0c0c0" d="M 59.75 48.425781 L 59.75 60.347656 L 42.035156 50.246094 L 54.050781 43.394531 C 54.171875 43.324219 54.25 43.195312 54.25 43.054688 L 54.25 40.175781 C 54.25 39.875 53.917969 39.683594 53.65625 39.835938 L 37.886719 48.828125 C 37.375 49.117188 37.058594 49.660156 37.058594 50.246094 C 37.058594 50.832031 37.375 51.371094 37.886719 51.664062 L 60.582031 64.605469 C 60.835938 64.75 61.125 64.824219 61.410156 64.824219 C 61.695312 64.824219 61.984375 64.75 62.238281 64.605469 C 62.753906 64.3125 63.070312 63.769531 63.070312 63.183594 L 63.070312 49.871094 C 63.070312 49.734375 62.992188 49.605469 62.871094 49.535156 L 60.347656 48.085938 C 60.082031 47.9375 59.75 48.125 59.75 48.425781 " fill-opacity="1" fill-rule="nonzero"/></g><g clip-path="url(#6ec71213da)"><path fill="#ffffff" d="M 72.148438 44.832031 C 69.316406 44.832031 67.023438 42.566406 67.023438 39.769531 C 67.023438 36.972656 69.316406 34.707031 72.148438 34.707031 C 74.980469 34.707031 77.273438 36.972656 77.273438 39.769531 C 77.273438 42.566406 74.980469 44.832031 72.148438 44.832031 " fill-opacity="1" fill-rule="nonzero"/></g><g clip-path="url(#ce77728fdf)"><path fill="#ffffff" d="M 58.609375 54.738281 L 58.609375 42.816406 L 76.328125 52.921875 L 64.3125 59.773438 C 64.1875 59.84375 64.113281 59.972656 64.113281 60.109375 L 64.113281 62.992188 C 64.113281 63.292969 64.441406 63.480469 64.707031 63.328125 L 80.476562 54.339844 C 80.988281 54.046875 81.304688 53.503906 81.304688 52.921875 C 81.304688 52.335938 80.988281 51.792969 80.476562 51.5 L 57.78125 38.5625 C 57.523438 38.414062 57.238281 38.34375 56.953125 38.34375 C 56.664062 38.34375 56.378906 38.414062 56.121094 38.5625 C 55.609375 38.855469 55.292969 39.394531 55.292969 39.980469 L 55.292969 53.292969 C 55.292969 53.433594 55.367188 53.5625 55.488281 53.632812 L 58.015625 55.078125 C 58.28125 55.230469 58.609375 55.042969 58.609375 54.738281 " fill-opacity="1" fill-rule="nonzero"/></g><g fill="#f4bb29" fill-opacity="1"><g transform="translate(21.448697, 80.162642)"><g><path d="M 3.863281 0.0898438 C 5.195312 0.0898438 6.347656 -0.660156 6.917969 -1.757812 L 5.640625 -2.417969 C 5.316406 -1.78125 4.65625 -1.355469 3.863281 -1.355469 C 2.730469 -1.355469 1.871094 -2.226562 1.871094 -3.359375 C 1.871094 -4.488281 2.730469 -5.363281 3.863281 -5.363281 C 4.65625 -5.363281 5.316406 -4.9375 5.640625 -4.296875 L 6.917969 -4.957031 C 6.347656 -6.054688 5.195312 -6.804688 3.863281 -6.804688 C 1.957031 -6.804688 0.414062 -5.261719 0.414062 -3.359375 C 0.414062 -1.457031 1.957031 0.0898438 3.863281 0.0898438 Z M 3.863281 0.0898438 "/></g></g></g><g fill="#f4bb29" fill-opacity="1"><g transform="translate(29.048541, 80.162642)"><g><path d="M 3.863281 0.0898438 C 5.777344 0.0898438 7.308594 -1.457031 7.308594 -3.359375 C 7.308594 -5.261719 5.777344 -6.804688 3.863281 -6.804688 C 1.957031 -6.804688 0.414062 -5.261719 0.414062 -3.359375 C 0.414062 -1.457031 1.957031 0.0898438 3.863281 0.0898438 Z M 3.863281 -1.355469 C 2.730469 -1.355469 1.871094 -2.226562 1.871094 -3.359375 C 1.871094 -4.488281 2.730469 -5.363281 3.863281 -5.363281 C 5.003906 -5.363281 5.863281 -4.488281 5.863281 -3.359375 C 5.863281 -2.226562 5.003906 -1.355469 3.863281 -1.355469 Z M 3.863281 -1.355469 "/></g></g></g><g fill="#f4bb29" fill-opacity="1"><g transform="translate(37.17427, 80.162642)"><g><path d="M 4.164062 -2.765625 C 4.957031 -3 5.519531 -3.738281 5.519531 -4.65625 C 5.519531 -5.796875 4.667969 -6.714844 3.515625 -6.714844 L 0.660156 -6.714844 L 0.660156 0 L 2.136719 0 L 2.136719 -2.597656 L 2.730469 -2.597656 L 4.386719 0 L 6.042969 0 Z M 3.289062 -3.816406 L 2.136719 -3.816406 L 2.136719 -5.40625 L 3.289062 -5.40625 C 3.761719 -5.40625 4.109375 -5.070312 4.109375 -4.613281 C 4.109375 -4.140625 3.761719 -3.816406 3.289062 -3.816406 Z M 3.289062 -3.816406 "/></g></g></g><g fill="#f4bb29" fill-opacity="1"><g transform="translate(43.554506, 80.162642)"><g><path d="M 4.757812 -5.417969 L 4.757812 -6.714844 L 0.714844 -6.714844 L 0.714844 0 L 4.757812 0 L 4.757812 -1.296875 L 2.195312 -1.296875 L 2.195312 -2.707031 L 4.386719 -2.707031 L 4.386719 -4.007812 L 2.195312 -4.007812 L 2.195312 -5.417969 Z M 4.757812 -5.417969 "/></g></g></g><g fill="#f4bb29" fill-opacity="1"><g transform="translate(49.162697, 80.162642)"><g/></g></g><g fill="#f4bb29" fill-opacity="1"><g transform="translate(52.242161, 80.162642)"><g><path d="M 6.515625 -6.714844 L 4.375 -2.070312 L 2.261719 -6.714844 L 0.660156 -6.714844 L 0.660156 0 L 2.136719 0 L 2.136719 -4.007812 L 3.949219 0 L 4.800781 0 L 6.625 -3.996094 L 6.625 0 L 8.105469 0 L 8.105469 -6.714844 Z M 6.515625 -6.714844 "/></g></g></g><g fill="#f4bb29" fill-opacity="1"><g transform="translate(61.397284, 80.162642)"><g><path d="M 4.769531 0 L 6.347656 0 L 3.929688 -6.714844 L 2.273438 -6.714844 L -0.144531 0 L 1.433594 0 L 1.847656 -1.265625 L 4.355469 -1.265625 Z M 2.238281 -2.496094 L 3.101562 -5.160156 L 3.960938 -2.496094 Z M 2.238281 -2.496094 "/></g></g></g><g fill="#f4bb29" fill-opacity="1"><g transform="translate(67.990113, 80.162642)"><g><path d="M 4.757812 -5.417969 L 4.757812 -6.714844 L 0.714844 -6.714844 L 0.714844 0 L 4.757812 0 L 4.757812 -1.296875 L 2.195312 -1.296875 L 2.195312 -2.707031 L 4.386719 -2.707031 L 4.386719 -4.007812 L 2.195312 -4.007812 L 2.195312 -5.417969 Z M 4.757812 -5.417969 "/></g></g></g><g fill="#f4bb29" fill-opacity="1"><g transform="translate(73.598304, 80.162642)"><g><path d="M 2.730469 0.0898438 C 3.984375 0.0898438 5.046875 -0.648438 5.046875 -1.902344 C 5.046875 -4.386719 1.957031 -3.773438 1.957031 -4.9375 C 1.957031 -5.316406 2.25 -5.496094 2.609375 -5.496094 C 2.988281 -5.496094 3.367188 -5.28125 3.703125 -4.914062 L 4.691406 -5.855469 C 4.199219 -6.425781 3.449219 -6.804688 2.621094 -6.804688 C 1.554688 -6.804688 0.46875 -6.167969 0.46875 -4.824219 C 0.46875 -2.539062 3.570312 -3.089844 3.570312 -1.914062 C 3.570312 -1.542969 3.257812 -1.296875 2.742188 -1.296875 C 2.125 -1.296875 1.644531 -1.644531 1.398438 -2.171875 L 0.179688 -1.410156 C 0.617188 -0.570312 1.554688 0.0898438 2.730469 0.0898438 Z M 2.730469 0.0898438 "/></g></g></g><g fill="#f4bb29" fill-opacity="1"><g transform="translate(79.296007, 80.162642)"><g><path d="M 4.800781 -6.714844 L -0.0546875 -6.714844 L -0.0546875 -5.40625 L 1.644531 -5.40625 L 1.644531 0 L 3.113281 0 L 3.113281 -5.40625 L 4.800781 -5.40625 Z M 4.800781 -6.714844 "/></g></g></g><g fill="#f4bb29" fill-opacity="1"><g transform="translate(84.434258, 80.162642)"><g><path d="M 4.164062 -2.765625 C 4.957031 -3 5.519531 -3.738281 5.519531 -4.65625 C 5.519531 -5.796875 4.667969 -6.714844 3.515625 -6.714844 L 0.660156 -6.714844 L 0.660156 0 L 2.136719 0 L 2.136719 -2.597656 L 2.730469 -2.597656 L 4.386719 0 L 6.042969 0 Z M 3.289062 -3.816406 L 2.136719 -3.816406 L 2.136719 -5.40625 L 3.289062 -5.40625 C 3.761719 -5.40625 4.109375 -5.070312 4.109375 -4.613281 C 4.109375 -4.140625 3.761719 -3.816406 3.289062 -3.816406 Z M 3.289062 -3.816406 "/></g></g></g><g fill="#f4bb29" fill-opacity="1"><g transform="translate(90.814494, 80.162642)"><g><path d="M 3.863281 0.0898438 C 5.777344 0.0898438 7.308594 -1.457031 7.308594 -3.359375 C 7.308594 -5.261719 5.777344 -6.804688 3.863281 -6.804688 C 1.957031 -6.804688 0.414062 -5.261719 0.414062 -3.359375 C 0.414062 -1.457031 1.957031 0.0898438 3.863281 0.0898438 Z M 3.863281 -1.355469 C 2.730469 -1.355469 1.871094 -2.226562 1.871094 -3.359375 C 1.871094 -4.488281 2.730469 -5.363281 3.863281 -5.363281 C 5.003906 -5.363281 5.863281 -4.488281 5.863281 -3.359375 C 5.863281 -2.226562 5.003906 -1.355469 3.863281 -1.355469 Z M 3.863281 -1.355469 "/></g></g></g><g fill="#f4bb29" fill-opacity="1"><g transform="translate(38.547507, 86.690973)"><g><path d="M 3.128906 -3.121094 L 1.929688 -0.398438 L 0.734375 -3.121094 L 0.378906 -3.121094 L 0.378906 0 L 0.710938 0 L 0.710938 -2.464844 L 1.789062 0 L 2.0625 0 L 3.152344 -2.453125 L 3.152344 0 L 3.476562 0 L 3.476562 -3.121094 Z M 3.128906 -3.121094 "/></g></g></g><g fill="#f4bb29" fill-opacity="1"><g transform="translate(43.798358, 86.690973)"><g><path d="M 2.261719 0 L 2.625 0 L 1.496094 -3.121094 L 1.128906 -3.121094 L 0 0 L 0.363281 0 L 0.617188 -0.726562 L 2.007812 -0.726562 Z M 0.726562 -1.046875 L 1.316406 -2.722656 L 1.898438 -1.046875 Z M 0.726562 -1.046875 "/></g></g></g><g fill="#f4bb29" fill-opacity="1"><g transform="translate(47.81718, 86.690973)"><g><path d="M 2.621094 -3.121094 L 2.621094 -0.554688 L 0.691406 -3.121094 L 0.378906 -3.121094 L 0.378906 0 L 0.710938 0 L 0.710938 -2.5625 L 2.636719 0 L 2.949219 0 L 2.949219 -3.121094 Z M 2.621094 -3.121094 "/></g></g></g><g fill="#f4bb29" fill-opacity="1"><g transform="translate(52.537791, 86.690973)"><g><path d="M 2.261719 0 L 2.625 0 L 1.496094 -3.121094 L 1.128906 -3.121094 L 0 0 L 0.363281 0 L 0.617188 -0.726562 L 2.007812 -0.726562 Z M 0.726562 -1.046875 L 1.316406 -2.722656 L 1.898438 -1.046875 Z M 0.726562 -1.046875 "/></g></g></g><g fill="#f4bb29" fill-opacity="1"><g transform="translate(56.556613, 86.690973)"><g><path d="M 1.867188 -1.652344 L 1.867188 -1.339844 L 3.121094 -1.339844 C 3.019531 -0.738281 2.5 -0.292969 1.871094 -0.292969 C 1.167969 -0.292969 0.601562 -0.851562 0.601562 -1.558594 C 0.601562 -2.265625 1.167969 -2.828125 1.871094 -2.828125 C 2.34375 -2.828125 2.761719 -2.574219 2.972656 -2.1875 L 3.261719 -2.351562 C 2.988281 -2.832031 2.46875 -3.160156 1.871094 -3.160156 C 0.984375 -3.160156 0.269531 -2.445312 0.269531 -1.558594 C 0.269531 -0.675781 0.984375 0.0429688 1.871094 0.0429688 C 2.753906 0.0429688 3.472656 -0.675781 3.472656 -1.558594 L 3.472656 -1.652344 Z M 1.867188 -1.652344 "/></g></g></g><g fill="#f4bb29" fill-opacity="1"><g transform="translate(61.6879, 86.690973)"><g><path d="M 2.109375 -2.796875 L 2.109375 -3.121094 L 0.40625 -3.121094 L 0.40625 0 L 2.109375 0 L 2.109375 -0.324219 L 0.738281 -0.324219 L 0.738281 -1.398438 L 1.933594 -1.398438 L 1.933594 -1.722656 L 0.738281 -1.722656 L 0.738281 -2.796875 Z M 2.109375 -2.796875 "/></g></g></g><g fill="#f4bb29" fill-opacity="1"><g transform="translate(65.503984, 86.690973)"><g><path d="M 3.128906 -3.121094 L 1.929688 -0.398438 L 0.734375 -3.121094 L 0.378906 -3.121094 L 0.378906 0 L 0.710938 0 L 0.710938 -2.464844 L 1.789062 0 L 2.0625 0 L 3.152344 -2.453125 L 3.152344 0 L 3.476562 0 L 3.476562 -3.121094 Z M 3.128906 -3.121094 "/></g></g></g><g fill="#f4bb29" fill-opacity="1"><g transform="translate(70.754834, 86.690973)"><g><path d="M 2.109375 -2.796875 L 2.109375 -3.121094 L 0.40625 -3.121094 L 0.40625 0 L 2.109375 0 L 2.109375 -0.324219 L 0.738281 -0.324219 L 0.738281 -1.398438 L 1.933594 -1.398438 L 1.933594 -1.722656 L 0.738281 -1.722656 L 0.738281 -2.796875 Z M 2.109375 -2.796875 "/></g></g></g><g fill="#f4bb29" fill-opacity="1"><g transform="translate(74.57092, 86.690973)"><g><path d="M 2.621094 -3.121094 L 2.621094 -0.554688 L 0.691406 -3.121094 L 0.378906 -3.121094 L 0.378906 0 L 0.710938 0 L 0.710938 -2.5625 L 2.636719 0 L 2.949219 0 L 2.949219 -3.121094 Z M 2.621094 -3.121094 "/></g></g></g><g fill="#f4bb29" fill-opacity="1"><g transform="translate(79.291533, 86.690973)"><g><path d="M 2.105469 -3.121094 L 0.046875 -3.121094 L 0.046875 -2.785156 L 0.910156 -2.785156 L 0.910156 0 L 1.242188 0 L 1.242188 -2.785156 L 2.105469 -2.785156 Z M 2.105469 -3.121094 "/></g></g></g></svg>