<svg xmlns="http://www.w3.org/2000/svg" xmlns:xlink="http://www.w3.org/1999/xlink" width="160" zoomAndPan="magnify" viewBox="0 0 120 119.999999" height="160" preserveAspectRatio="xMidYMid meet" version="1.0"><defs><g/></defs><rect x="-12" width="144" fill="#ffffff" y="-12" height="143.999998" fill-opacity="1"/><rect x="-12" width="144" fill="#001f3f" y="-12" height="143.999998" fill-opacity="1"/><g fill="#f4bb29" fill-opacity="1"><g transform="translate(17.149291, 57.266396)"><g><path d="M 4.292969 0.0976562 C 5.773438 0.0976562 7.054688 -0.734375 7.6875 -1.953125 L 6.269531 -2.6875 C 5.910156 -1.976562 5.175781 -1.503906 4.292969 -1.503906 C 3.035156 -1.503906 2.078125 -2.476562 2.078125 -3.730469 C 2.078125 -4.988281 3.035156 -5.960938 4.292969 -5.960938 C 5.175781 -5.960938 5.910156 -5.484375 6.269531 -4.777344 L 7.6875 -5.511719 C 7.054688 -6.730469 5.773438 -7.5625 4.292969 -7.5625 C 2.175781 -7.5625 0.460938 -5.847656 0.460938 -3.730469 C 0.460938 -1.617188 2.175781 0.0976562 4.292969 0.0976562 Z M 4.292969 0.0976562 "/></g></g></g><g fill="#f4bb29" fill-opacity="1"><g transform="translate(25.596496, 57.266396)"><g><path d="M 4.292969 0.0976562 C 6.417969 0.0976562 8.125 -1.617188 8.125 -3.730469 C 8.125 -5.847656 6.417969 -7.5625 4.292969 -7.5625 C 2.175781 -7.5625 0.460938 -5.847656 0.460938 -3.730469 C 0.460938 -1.617188 2.175781 0.0976562 4.292969 0.0976562 Z M 4.292969 -1.503906 C 3.035156 -1.503906 2.078125 -2.476562 2.078125 -3.730469 C 2.078125 -4.988281 3.035156 -5.960938 4.292969 -5.960938 C 5.5625 -5.960938 6.519531 -4.988281 6.519531 -3.730469 C 6.519531 -2.476562 5.5625 -1.503906 4.292969 -1.503906 Z M 4.292969 -1.503906 "/></g></g></g><g fill="#f4bb29" fill-opacity="1"><g transform="translate(34.628218, 57.266396)"><g><path d="M 4.628906 -3.074219 C 5.511719 -3.335938 6.132812 -4.15625 6.132812 -5.175781 C 6.132812 -6.445312 5.1875 -7.464844 3.90625 -7.464844 L 0.734375 -7.464844 L 0.734375 0 L 2.375 0 L 2.375 -2.886719 L 3.035156 -2.886719 L 4.875 0 L 6.71875 0 Z M 3.65625 -4.242188 L 2.375 -4.242188 L 2.375 -6.007812 L 3.65625 -6.007812 C 4.179688 -6.007812 4.566406 -5.636719 4.566406 -5.125 C 4.566406 -4.601562 4.179688 -4.242188 3.65625 -4.242188 Z M 3.65625 -4.242188 "/></g></g></g><g fill="#f4bb29" fill-opacity="1"><g transform="translate(41.719847, 57.266396)"><g><path d="M 5.289062 -6.019531 L 5.289062 -7.464844 L 0.796875 -7.464844 L 0.796875 0 L 5.289062 0 L 5.289062 -1.441406 L 2.4375 -1.441406 L 2.4375 -3.011719 L 4.875 -3.011719 L 4.875 -4.453125 L 2.4375 -4.453125 L 2.4375 -6.019531 Z M 5.289062 -6.019531 "/></g></g></g><g fill="#f4bb29" fill-opacity="1"><g transform="translate(47.953352, 57.266396)"><g/></g></g><g fill="#f4bb29" fill-opacity="1"><g transform="translate(51.376211, 57.266396)"><g><path d="M 7.242188 -7.464844 L 4.863281 -2.300781 L 2.511719 -7.464844 L 0.734375 -7.464844 L 0.734375 0 L 2.375 0 L 2.375 -4.453125 L 4.390625 0 L 5.335938 0 L 7.363281 -4.441406 L 7.363281 0 L 9.007812 0 L 9.007812 -7.464844 Z M 7.242188 -7.464844 "/></g></g></g><g fill="#f4bb29" fill-opacity="1"><g transform="translate(61.552091, 57.266396)"><g><path d="M 5.300781 0 L 7.054688 0 L 4.367188 -7.464844 L 2.527344 -7.464844 L -0.160156 0 L 1.59375 0 L 2.050781 -1.40625 L 4.839844 -1.40625 Z M 2.488281 -2.773438 L 3.445312 -5.734375 L 4.402344 -2.773438 Z M 2.488281 -2.773438 "/></g></g></g><g fill="#f4bb29" fill-opacity="1"><g transform="translate(68.880005, 57.266396)"><g><path d="M 5.289062 -6.019531 L 5.289062 -7.464844 L 0.796875 -7.464844 L 0.796875 0 L 5.289062 0 L 5.289062 -1.441406 L 2.4375 -1.441406 L 2.4375 -3.011719 L 4.875 -3.011719 L 4.875 -4.453125 L 2.4375 -4.453125 L 2.4375 -6.019531 Z M 5.289062 -6.019531 "/></g></g></g><g fill="#f4bb29" fill-opacity="1"><g transform="translate(75.11351, 57.266396)"><g><path d="M 3.035156 0.0976562 C 4.429688 0.0976562 5.609375 -0.722656 5.609375 -2.113281 C 5.609375 -4.875 2.175781 -4.191406 2.175781 -5.484375 C 2.175781 -5.910156 2.5 -6.109375 2.898438 -6.109375 C 3.320312 -6.109375 3.746094 -5.871094 4.117188 -5.460938 L 5.210938 -6.507812 C 4.664062 -7.140625 3.832031 -7.5625 2.910156 -7.5625 C 1.730469 -7.5625 0.523438 -6.855469 0.523438 -5.363281 C 0.523438 -2.824219 3.96875 -3.433594 3.96875 -2.128906 C 3.96875 -1.71875 3.621094 -1.441406 3.046875 -1.441406 C 2.363281 -1.441406 1.828125 -1.828125 1.554688 -2.414062 L 0.199219 -1.566406 C 0.683594 -0.632812 1.730469 0.0976562 3.035156 0.0976562 Z M 3.035156 0.0976562 "/></g></g></g><g fill="#f4bb29" fill-opacity="1"><g transform="translate(81.44651, 57.266396)"><g><path d="M 5.335938 -7.464844 L -0.0625 -7.464844 L -0.0625 -6.007812 L 1.828125 -6.007812 L 1.828125 0 L 3.457031 0 L 3.457031 -6.007812 L 5.335938 -6.007812 Z M 5.335938 -7.464844 "/></g></g></g><g fill="#f4bb29" fill-opacity="1"><g transform="translate(87.157684, 57.266396)"><g><path d="M 4.628906 -3.074219 C 5.511719 -3.335938 6.132812 -4.15625 6.132812 -5.175781 C 6.132812 -6.445312 5.1875 -7.464844 3.90625 -7.464844 L 0.734375 -7.464844 L 0.734375 0 L 2.375 0 L 2.375 -2.886719 L 3.035156 -2.886719 L 4.875 0 L 6.71875 0 Z M 3.65625 -4.242188 L 2.375 -4.242188 L 2.375 -6.007812 L 3.65625 -6.007812 C 4.179688 -6.007812 4.566406 -5.636719 4.566406 -5.125 C 4.566406 -4.601562 4.179688 -4.242188 3.65625 -4.242188 Z M 3.65625 -4.242188 "/></g></g></g><g fill="#f4bb29" fill-opacity="1"><g transform="translate(94.249313, 57.266396)"><g><path d="M 4.292969 0.0976562 C 6.417969 0.0976562 8.125 -1.617188 8.125 -3.730469 C 8.125 -5.847656 6.417969 -7.5625 4.292969 -7.5625 C 2.175781 -7.5625 0.460938 -5.847656 0.460938 -3.730469 C 0.460938 -1.617188 2.175781 0.0976562 4.292969 0.0976562 Z M 4.292969 -1.503906 C 3.035156 -1.503906 2.078125 -2.476562 2.078125 -3.730469 C 2.078125 -4.988281 3.035156 -5.960938 4.292969 -5.960938 C 5.5625 -5.960938 6.519531 -4.988281 6.519531 -3.730469 C 6.519531 -2.476562 5.5625 -1.503906 4.292969 -1.503906 Z M 4.292969 -1.503906 "/></g></g></g><g fill="#f4bb29" fill-opacity="1"><g transform="translate(33.386548, 63.5748)"><g><path d="M 3.882812 -3.871094 L 2.394531 -0.496094 L 0.910156 -3.871094 L 0.472656 -3.871094 L 0.472656 0 L 0.882812 0 L 0.882812 -3.058594 L 2.21875 0 L 2.5625 0 L 3.910156 -3.042969 L 3.910156 0 L 4.316406 0 L 4.316406 -3.871094 Z M 3.882812 -3.871094 "/></g></g></g><g fill="#f4bb29" fill-opacity="1"><g transform="translate(39.901173, 63.5748)"><g><path d="M 2.804688 0 L 3.257812 0 L 1.859375 -3.871094 L 1.398438 -3.871094 L 0 0 L 0.453125 0 L 0.765625 -0.902344 L 2.488281 -0.902344 Z M 0.902344 -1.296875 L 1.632812 -3.378906 L 2.355469 -1.296875 Z M 0.902344 -1.296875 "/></g></g></g><g fill="#f4bb29" fill-opacity="1"><g transform="translate(44.887117, 63.5748)"><g><path d="M 3.25 -3.871094 L 3.25 -0.691406 L 0.859375 -3.871094 L 0.472656 -3.871094 L 0.472656 0 L 0.882812 0 L 0.882812 -3.179688 L 3.269531 0 L 3.65625 0 L 3.65625 -3.871094 Z M 3.25 -3.871094 "/></g></g></g><g fill="#f4bb29" fill-opacity="1"><g transform="translate(50.743827, 63.5748)"><g><path d="M 2.804688 0 L 3.257812 0 L 1.859375 -3.871094 L 1.398438 -3.871094 L 0 0 L 0.453125 0 L 0.765625 -0.902344 L 2.488281 -0.902344 Z M 0.902344 -1.296875 L 1.632812 -3.378906 L 2.355469 -1.296875 Z M 0.902344 -1.296875 "/></g></g></g><g fill="#f4bb29" fill-opacity="1"><g transform="translate(55.729771, 63.5748)"><g><path d="M 2.316406 -2.050781 L 2.316406 -1.664062 L 3.871094 -1.664062 C 3.746094 -0.914062 3.101562 -0.359375 2.320312 -0.359375 C 1.453125 -0.359375 0.75 -1.058594 0.75 -1.933594 C 0.75 -2.8125 1.453125 -3.507812 2.320312 -3.507812 C 2.910156 -3.507812 3.425781 -3.191406 3.6875 -2.714844 L 4.042969 -2.914062 C 3.707031 -3.515625 3.0625 -3.921875 2.320312 -3.921875 C 1.21875 -3.921875 0.335938 -3.03125 0.335938 -1.933594 C 0.335938 -0.839844 1.21875 0.0507812 2.320312 0.0507812 C 3.417969 0.0507812 4.308594 -0.839844 4.308594 -1.933594 L 4.308594 -2.050781 Z M 2.316406 -2.050781 "/></g></g></g><g fill="#f4bb29" fill-opacity="1"><g transform="translate(62.096045, 63.5748)"><g><path d="M 2.617188 -3.46875 L 2.617188 -3.871094 L 0.503906 -3.871094 L 0.503906 0 L 2.617188 0 L 2.617188 -0.398438 L 0.914062 -0.398438 L 0.914062 -1.734375 L 2.398438 -1.734375 L 2.398438 -2.136719 L 0.914062 -2.136719 L 0.914062 -3.46875 Z M 2.617188 -3.46875 "/></g></g></g><g fill="#f4bb29" fill-opacity="1"><g transform="translate(66.830434, 63.5748)"><g><path d="M 3.882812 -3.871094 L 2.394531 -0.496094 L 0.910156 -3.871094 L 0.472656 -3.871094 L 0.472656 0 L 0.882812 0 L 0.882812 -3.058594 L 2.21875 0 L 2.5625 0 L 3.910156 -3.042969 L 3.910156 0 L 4.316406 0 L 4.316406 -3.871094 Z M 3.882812 -3.871094 "/></g></g></g><g fill="#f4bb29" fill-opacity="1"><g transform="translate(73.345061, 63.5748)"><g><path d="M 2.617188 -3.46875 L 2.617188 -3.871094 L 0.503906 -3.871094 L 0.503906 0 L 2.617188 0 L 2.617188 -0.398438 L 0.914062 -0.398438 L 0.914062 -1.734375 L 2.398438 -1.734375 L 2.398438 -2.136719 L 0.914062 -2.136719 L 0.914062 -3.46875 Z M 2.617188 -3.46875 "/></g></g></g><g fill="#f4bb29" fill-opacity="1"><g transform="translate(78.07945, 63.5748)"><g><path d="M 3.25 -3.871094 L 3.25 -0.691406 L 0.859375 -3.871094 L 0.472656 -3.871094 L 0.472656 0 L 0.882812 0 L 0.882812 -3.179688 L 3.269531 0 L 3.65625 0 L 3.65625 -3.871094 Z M 3.25 -3.871094 "/></g></g></g><g fill="#f4bb29" fill-opacity="1"><g transform="translate(83.936162, 63.5748)"><g><path d="M 2.613281 -3.871094 L 0.0585938 -3.871094 L 0.0585938 -3.457031 L 1.128906 -3.457031 L 1.128906 0 L 1.542969 0 L 1.542969 -3.457031 L 2.613281 -3.457031 Z M 2.613281 -3.871094 "/></g></g></g></svg>