<svg xmlns="http://www.w3.org/2000/svg" xmlns:xlink="http://www.w3.org/1999/xlink" width="160" zoomAndPan="magnify" viewBox="0 0 120 119.999999" height="160" preserveAspectRatio="xMidYMid meet" version="1.0"><defs><g/><clipPath id="cc49a181ec"><path d="M 41 58 L 52 58 L 52 68.457031 L 41 68.457031 Z M 41 58 " clip-rule="nonzero"/></clipPath><clipPath id="6a2a836d21"><path d="M 37.058594 39 L 64 39 L 64 65 L 37.058594 65 Z M 37.058594 39 " clip-rule="nonzero"/></clipPath><clipPath id="9ab5eacf3f"><path d="M 67 34.707031 L 78 34.707031 L 78 45 L 67 45 Z M 67 34.707031 " clip-rule="nonzero"/></clipPath><clipPath id="f5bbb3d861"><path d="M 55 38 L 81.308594 38 L 81.308594 64 L 55 64 Z M 55 38 " clip-rule="nonzero"/></clipPath></defs><g clip-path="url(#cc49a181ec)"><path fill="#f4bb29" d="M 46.214844 58.332031 C 49.042969 58.332031 51.339844 60.597656 51.339844 63.394531 C 51.339844 66.191406 49.042969 68.457031 46.214844 68.457031 C 43.382812 68.457031 41.085938 66.191406 41.085938 63.394531 C 41.085938 60.597656 43.382812 58.332031 46.214844 58.332031 " fill-opacity="1" fill-rule="nonzero"/></g><g clip-path="url(#6a2a836d21)"><path fill="#f4bb29" d="M 59.75 48.425781 L 59.75 60.347656 L 42.035156 50.246094 L 54.050781 43.394531 C 54.171875 43.324219 54.25 43.195312 54.25 43.054688 L 54.25 40.175781 C 54.25 39.875 53.917969 39.683594 53.65625 39.835938 L 37.886719 48.828125 C 37.375 49.117188 37.058594 49.660156 37.058594 50.246094 C 37.058594 50.832031 37.375 51.371094 37.886719 51.664062 L 60.582031 64.605469 C 60.835938 64.75 61.125 64.824219 61.410156 64.824219 C 61.695312 64.824219 61.984375 64.75 62.238281 64.605469 C 62.753906 64.3125 63.070312 63.769531 63.070312 63.183594 L 63.070312 49.871094 C 63.070312 49.734375 62.992188 49.605469 62.871094 49.535156 L 60.347656 48.085938 C 60.082031 47.9375 59.75 48.125 59.75 48.425781 " fill-opacity="1" fill-rule="nonzero"/></g><g clip-path="url(#9ab5eacf3f)"><path fill="#001f3f" d="M 72.148438 44.832031 C 69.316406 44.832031 67.023438 42.566406 67.023438 39.769531 C 67.023438 36.972656 69.316406 34.707031 72.148438 34.707031 C 74.980469 34.707031 77.273438 36.972656 77.273438 39.769531 C 77.273438 42.566406 74.980469 44.832031 72.148438 44.832031 " fill-opacity="1" fill-rule="nonzero"/></g><g clip-path="url(#f5bbb3d861)"><path fill="#001f3f" d="M 58.609375 54.738281 L 58.609375 42.816406 L 76.328125 52.921875 L 64.3125 59.773438 C 64.1875 59.84375 64.113281 59.972656 64.113281 60.109375 L 64.113281 62.992188 C 64.113281 63.292969 64.441406 63.480469 64.707031 63.328125 L 80.476562 54.339844 C 80.988281 54.046875 81.304688 53.503906 81.304688 52.921875 C 81.304688 52.335938 80.988281 51.792969 80.476562 51.5 L 57.78125 38.5625 C 57.523438 38.414062 57.238281 38.34375 56.953125 38.34375 C 56.664062 38.34375 56.378906 38.414062 56.121094 38.5625 C 55.609375 38.855469 55.292969 39.394531 55.292969 39.980469 L 55.292969 53.292969 C 55.292969 53.433594 55.367188 53.5625 55.488281 53.632812 L 58.015625 55.078125 C 58.28125 55.230469 58.609375 55.042969 58.609375 54.738281 " fill-opacity="1" fill-rule="nonzero"/></g><g fill="#333333" fill-opacity="1"><g transform="translate(24.64655, 80.121794)"><g><path d="M 3.449219 0.078125 C 4.636719 0.078125 5.667969 -0.589844 6.175781 -1.570312 L 5.035156 -2.160156 C 4.746094 -1.589844 4.15625 -1.210938 3.449219 -1.210938 C 2.4375 -1.210938 1.667969 -1.988281 1.667969 -2.996094 C 1.667969 -4.007812 2.4375 -4.785156 3.449219 -4.785156 C 4.15625 -4.785156 4.746094 -4.40625 5.035156 -3.835938 L 6.175781 -4.425781 C 5.667969 -5.40625 4.636719 -6.074219 3.449219 -6.074219 C 1.75 -6.074219 0.371094 -4.695312 0.371094 -2.996094 C 0.371094 -1.300781 1.75 0.078125 3.449219 0.078125 Z M 3.449219 0.078125 "/></g></g></g><g fill="#333333" fill-opacity="1"><g transform="translate(31.431377, 80.121794)"><g><path d="M 3.449219 0.078125 C 5.15625 0.078125 6.527344 -1.300781 6.527344 -2.996094 C 6.527344 -4.695312 5.15625 -6.074219 3.449219 -6.074219 C 1.75 -6.074219 0.371094 -4.695312 0.371094 -2.996094 C 0.371094 -1.300781 1.75 0.078125 3.449219 0.078125 Z M 3.449219 -1.210938 C 2.4375 -1.210938 1.667969 -1.988281 1.667969 -2.996094 C 1.667969 -4.007812 2.4375 -4.785156 3.449219 -4.785156 C 4.46875 -4.785156 5.238281 -4.007812 5.238281 -2.996094 C 5.238281 -1.988281 4.46875 -1.210938 3.449219 -1.210938 Z M 3.449219 -1.210938 "/></g></g></g><g fill="#333333" fill-opacity="1"><g transform="translate(38.685689, 80.121794)"><g><path d="M 3.71875 -2.46875 C 4.425781 -2.679688 4.925781 -3.335938 4.925781 -4.15625 C 4.925781 -5.175781 4.167969 -5.996094 3.136719 -5.996094 L 0.589844 -5.996094 L 0.589844 0 L 1.910156 0 L 1.910156 -2.320312 L 2.4375 -2.320312 L 3.917969 0 L 5.394531 0 Z M 2.9375 -3.40625 L 1.910156 -3.40625 L 1.910156 -4.828125 L 2.9375 -4.828125 C 3.359375 -4.828125 3.667969 -4.527344 3.667969 -4.117188 C 3.667969 -3.699219 3.359375 -3.40625 2.9375 -3.40625 Z M 2.9375 -3.40625 "/></g></g></g><g fill="#333333" fill-opacity="1"><g transform="translate(44.381704, 80.121794)"><g><path d="M 4.246094 -4.835938 L 4.246094 -5.996094 L 0.640625 -5.996094 L 0.640625 0 L 4.246094 0 L 4.246094 -1.160156 L 1.957031 -1.160156 L 1.957031 -2.417969 L 3.917969 -2.417969 L 3.917969 -3.578125 L 1.957031 -3.578125 L 1.957031 -4.835938 Z M 4.246094 -4.835938 "/></g></g></g><g fill="#333333" fill-opacity="1"><g transform="translate(49.38847, 80.121794)"><g/></g></g><g fill="#333333" fill-opacity="1"><g transform="translate(52.137703, 80.121794)"><g><path d="M 5.816406 -5.996094 L 3.90625 -1.847656 L 2.019531 -5.996094 L 0.589844 -5.996094 L 0.589844 0 L 1.910156 0 L 1.910156 -3.578125 L 3.527344 0 L 4.285156 0 L 5.914062 -3.566406 L 5.914062 0 L 7.234375 0 L 7.234375 -5.996094 Z M 5.816406 -5.996094 "/></g></g></g><g fill="#333333" fill-opacity="1"><g transform="translate(60.311011, 80.121794)"><g><path d="M 4.257812 0 L 5.667969 0 L 3.507812 -5.996094 L 2.027344 -5.996094 L -0.128906 0 L 1.277344 0 L 1.648438 -1.128906 L 3.886719 -1.128906 Z M 2 -2.226562 L 2.769531 -4.605469 L 3.539062 -2.226562 Z M 2 -2.226562 "/></g></g></g><g fill="#333333" fill-opacity="1"><g transform="translate(66.196819, 80.121794)"><g><path d="M 4.246094 -4.835938 L 4.246094 -5.996094 L 0.640625 -5.996094 L 0.640625 0 L 4.246094 0 L 4.246094 -1.160156 L 1.957031 -1.160156 L 1.957031 -2.417969 L 3.917969 -2.417969 L 3.917969 -3.578125 L 1.957031 -3.578125 L 1.957031 -4.835938 Z M 4.246094 -4.835938 "/></g></g></g><g fill="#333333" fill-opacity="1"><g transform="translate(71.203585, 80.121794)"><g><path d="M 2.4375 0.078125 C 3.558594 0.078125 4.507812 -0.578125 4.507812 -1.699219 C 4.507812 -3.917969 1.75 -3.367188 1.75 -4.40625 C 1.75 -4.746094 2.007812 -4.90625 2.328125 -4.90625 C 2.667969 -4.90625 3.007812 -4.714844 3.308594 -4.386719 L 4.1875 -5.226562 C 3.746094 -5.734375 3.078125 -6.074219 2.339844 -6.074219 C 1.390625 -6.074219 0.417969 -5.507812 0.417969 -4.308594 C 0.417969 -2.269531 3.1875 -2.757812 3.1875 -1.707031 C 3.1875 -1.378906 2.90625 -1.160156 2.449219 -1.160156 C 1.898438 -1.160156 1.46875 -1.46875 1.25 -1.9375 L 0.160156 -1.257812 C 0.550781 -0.507812 1.390625 0.078125 2.4375 0.078125 Z M 2.4375 0.078125 "/></g></g></g><g fill="#333333" fill-opacity="1"><g transform="translate(76.290265, 80.121794)"><g><path d="M 4.285156 -5.996094 L -0.0507812 -5.996094 L -0.0507812 -4.828125 L 1.46875 -4.828125 L 1.46875 0 L 2.777344 0 L 2.777344 -4.828125 L 4.285156 -4.828125 Z M 4.285156 -5.996094 "/></g></g></g><g fill="#333333" fill-opacity="1"><g transform="translate(80.877493, 80.121794)"><g><path d="M 3.71875 -2.46875 C 4.425781 -2.679688 4.925781 -3.335938 4.925781 -4.15625 C 4.925781 -5.175781 4.167969 -5.996094 3.136719 -5.996094 L 0.589844 -5.996094 L 0.589844 0 L 1.910156 0 L 1.910156 -2.320312 L 2.4375 -2.320312 L 3.917969 0 L 5.394531 0 Z M 2.9375 -3.40625 L 1.910156 -3.40625 L 1.910156 -4.828125 L 2.9375 -4.828125 C 3.359375 -4.828125 3.667969 -4.527344 3.667969 -4.117188 C 3.667969 -3.699219 3.359375 -3.40625 2.9375 -3.40625 Z M 2.9375 -3.40625 "/></g></g></g><g fill="#333333" fill-opacity="1"><g transform="translate(86.573504, 80.121794)"><g><path d="M 3.449219 0.078125 C 5.15625 0.078125 6.527344 -1.300781 6.527344 -2.996094 C 6.527344 -4.695312 5.15625 -6.074219 3.449219 -6.074219 C 1.75 -6.074219 0.371094 -4.695312 0.371094 -2.996094 C 0.371094 -1.300781 1.75 0.078125 3.449219 0.078125 Z M 3.449219 -1.210938 C 2.4375 -1.210938 1.667969 -1.988281 1.667969 -2.996094 C 1.667969 -4.007812 2.4375 -4.785156 3.449219 -4.785156 C 4.46875 -4.785156 5.238281 -4.007812 5.238281 -2.996094 C 5.238281 -1.988281 4.46875 -1.210938 3.449219 -1.210938 Z M 3.449219 -1.210938 "/></g></g></g><g fill="#333333" fill-opacity="1"><g transform="translate(40.193561, 86.538103)"><g><path d="M 2.890625 -2.878906 L 1.78125 -0.371094 L 0.675781 -2.878906 L 0.351562 -2.878906 L 0.351562 0 L 0.65625 0 L 0.65625 -2.273438 L 1.652344 0 L 1.90625 0 L 2.910156 -2.265625 L 2.910156 0 L 3.210938 0 L 3.210938 -2.878906 Z M 2.890625 -2.878906 "/></g></g></g><g fill="#333333" fill-opacity="1"><g transform="translate(45.04158, 86.538103)"><g><path d="M 2.089844 0 L 2.425781 0 L 1.382812 -2.878906 L 1.042969 -2.878906 L 0 0 L 0.335938 0 L 0.570312 -0.671875 L 1.851562 -0.671875 Z M 0.671875 -0.964844 L 1.214844 -2.515625 L 1.753906 -0.964844 Z M 0.671875 -0.964844 "/></g></g></g><g fill="#333333" fill-opacity="1"><g transform="translate(48.752001, 86.538103)"><g><path d="M 2.417969 -2.878906 L 2.417969 -0.511719 L 0.636719 -2.878906 L 0.351562 -2.878906 L 0.351562 0 L 0.65625 0 L 0.65625 -2.367188 L 2.433594 0 L 2.722656 0 L 2.722656 -2.878906 Z M 2.417969 -2.878906 "/></g></g></g><g fill="#333333" fill-opacity="1"><g transform="translate(53.110422, 86.538103)"><g><path d="M 2.089844 0 L 2.425781 0 L 1.382812 -2.878906 L 1.042969 -2.878906 L 0 0 L 0.335938 0 L 0.570312 -0.671875 L 1.851562 -0.671875 Z M 0.671875 -0.964844 L 1.214844 -2.515625 L 1.753906 -0.964844 Z M 0.671875 -0.964844 "/></g></g></g><g fill="#333333" fill-opacity="1"><g transform="translate(56.820844, 86.538103)"><g><path d="M 1.722656 -1.527344 L 1.722656 -1.238281 L 2.878906 -1.238281 C 2.789062 -0.679688 2.308594 -0.269531 1.726562 -0.269531 C 1.078125 -0.269531 0.558594 -0.789062 0.558594 -1.441406 C 0.558594 -2.09375 1.078125 -2.609375 1.726562 -2.609375 C 2.164062 -2.609375 2.546875 -2.375 2.746094 -2.019531 L 3.007812 -2.167969 C 2.761719 -2.617188 2.28125 -2.917969 1.726562 -2.917969 C 0.90625 -2.917969 0.25 -2.257812 0.25 -1.441406 C 0.25 -0.625 0.90625 0.0390625 1.726562 0.0390625 C 2.542969 0.0390625 3.207031 -0.625 3.207031 -1.441406 L 3.207031 -1.527344 Z M 1.722656 -1.527344 "/></g></g></g><g fill="#333333" fill-opacity="1"><g transform="translate(61.558465, 86.538103)"><g><path d="M 1.949219 -2.582031 L 1.949219 -2.878906 L 0.375 -2.878906 L 0.375 0 L 1.949219 0 L 1.949219 -0.296875 L 0.679688 -0.296875 L 0.679688 -1.292969 L 1.785156 -1.292969 L 1.785156 -1.589844 L 0.679688 -1.589844 L 0.679688 -2.582031 Z M 1.949219 -2.582031 "/></g></g></g><g fill="#333333" fill-opacity="1"><g transform="translate(65.081687, 86.538103)"><g><path d="M 2.890625 -2.878906 L 1.78125 -0.371094 L 0.675781 -2.878906 L 0.351562 -2.878906 L 0.351562 0 L 0.65625 0 L 0.65625 -2.273438 L 1.652344 0 L 1.90625 0 L 2.910156 -2.265625 L 2.910156 0 L 3.210938 0 L 3.210938 -2.878906 Z M 2.890625 -2.878906 "/></g></g></g><g fill="#333333" fill-opacity="1"><g transform="translate(69.929706, 86.538103)"><g><path d="M 1.949219 -2.582031 L 1.949219 -2.878906 L 0.375 -2.878906 L 0.375 0 L 1.949219 0 L 1.949219 -0.296875 L 0.679688 -0.296875 L 0.679688 -1.292969 L 1.785156 -1.292969 L 1.785156 -1.589844 L 0.679688 -1.589844 L 0.679688 -2.582031 Z M 1.949219 -2.582031 "/></g></g></g><g fill="#333333" fill-opacity="1"><g transform="translate(73.452928, 86.538103)"><g><path d="M 2.417969 -2.878906 L 2.417969 -0.511719 L 0.636719 -2.878906 L 0.351562 -2.878906 L 0.351562 0 L 0.65625 0 L 0.65625 -2.367188 L 2.433594 0 L 2.722656 0 L 2.722656 -2.878906 Z M 2.417969 -2.878906 "/></g></g></g><g fill="#333333" fill-opacity="1"><g transform="translate(77.811347, 86.538103)"><g><path d="M 1.945312 -2.878906 L 0.0429688 -2.878906 L 0.0429688 -2.574219 L 0.839844 -2.574219 L 0.839844 0 L 1.148438 0 L 1.148438 -2.574219 L 1.945312 -2.574219 Z M 1.945312 -2.878906 "/></g></g></g></svg>