<svg xmlns="http://www.w3.org/2000/svg" xmlns:xlink="http://www.w3.org/1999/xlink" width="160" zoomAndPan="magnify" viewBox="0 0 120 119.999999" height="160" preserveAspectRatio="xMidYMid meet" version="1.0"><defs><g/></defs><g fill="#333333" fill-opacity="1"><g transform="translate(15.089181, 58.913723)"><g><path d="M 4.5 0.105469 C 6.054688 0.105469 7.398438 -0.769531 8.0625 -2.046875 L 6.574219 -2.816406 C 6.199219 -2.074219 5.429688 -1.578125 4.5 -1.578125 C 3.183594 -1.578125 2.179688 -2.597656 2.179688 -3.914062 C 2.179688 -5.230469 3.183594 -6.25 4.5 -6.25 C 5.429688 -6.25 6.199219 -5.753906 6.574219 -5.011719 L 8.0625 -5.78125 C 7.398438 -7.058594 6.054688 -7.933594 4.5 -7.933594 C 2.285156 -7.933594 0.484375 -6.132812 0.484375 -3.914062 C 0.484375 -1.695312 2.285156 0.105469 4.5 0.105469 Z M 4.5 0.105469 "/></g></g></g><g fill="#333333" fill-opacity="1"><g transform="translate(23.942368, 58.913723)"><g><path d="M 4.5 0.105469 C 6.734375 0.105469 8.519531 -1.695312 8.519531 -3.914062 C 8.519531 -6.132812 6.734375 -7.933594 4.5 -7.933594 C 2.285156 -7.933594 0.484375 -6.132812 0.484375 -3.914062 C 0.484375 -1.695312 2.285156 0.105469 4.5 0.105469 Z M 4.5 -1.578125 C 3.183594 -1.578125 2.179688 -2.597656 2.179688 -3.914062 C 2.179688 -5.230469 3.183594 -6.25 4.5 -6.25 C 5.832031 -6.25 6.835938 -5.230469 6.835938 -3.914062 C 6.835938 -2.597656 5.832031 -1.578125 4.5 -1.578125 Z M 4.5 -1.578125 "/></g></g></g><g fill="#333333" fill-opacity="1"><g transform="translate(33.408145, 58.913723)"><g><path d="M 4.855469 -3.222656 C 5.78125 -3.496094 6.433594 -4.359375 6.433594 -5.429688 C 6.433594 -6.757812 5.441406 -7.828125 4.097656 -7.828125 L 0.769531 -7.828125 L 0.769531 0 L 2.492188 0 L 2.492188 -3.027344 L 3.183594 -3.027344 L 5.113281 0 L 7.046875 0 Z M 3.835938 -4.449219 L 2.492188 -4.449219 L 2.492188 -6.300781 L 3.835938 -6.300781 C 4.382812 -6.300781 4.789062 -5.910156 4.789062 -5.375 C 4.789062 -4.828125 4.382812 -4.449219 3.835938 -4.449219 Z M 3.835938 -4.449219 "/></g></g></g><g fill="#333333" fill-opacity="1"><g transform="translate(40.840632, 58.913723)"><g><path d="M 5.546875 -6.316406 L 5.546875 -7.828125 L 0.835938 -7.828125 L 0.835938 0 L 5.546875 0 L 5.546875 -1.511719 L 2.558594 -1.511719 L 2.558594 -3.15625 L 5.113281 -3.15625 L 5.113281 -4.671875 L 2.558594 -4.671875 L 2.558594 -6.316406 Z M 5.546875 -6.316406 "/></g></g></g><g fill="#333333" fill-opacity="1"><g transform="translate(47.373771, 58.913723)"><g/></g></g><g fill="#333333" fill-opacity="1"><g transform="translate(50.96123, 58.913723)"><g><path d="M 7.59375 -7.828125 L 5.101562 -2.414062 L 2.636719 -7.828125 L 0.769531 -7.828125 L 0.769531 0 L 2.492188 0 L 2.492188 -4.671875 L 4.605469 0 L 5.597656 0 L 7.722656 -4.65625 L 7.722656 0 L 9.445312 0 L 9.445312 -7.828125 Z M 7.59375 -7.828125 "/></g></g></g><g fill="#333333" fill-opacity="1"><g transform="translate(61.626136, 58.913723)"><g><path d="M 5.558594 0 L 7.398438 0 L 4.578125 -7.828125 L 2.648438 -7.828125 L -0.167969 0 L 1.671875 0 L 2.152344 -1.472656 L 5.074219 -1.472656 Z M 2.609375 -2.910156 L 3.613281 -6.015625 L 4.617188 -2.910156 Z M 2.609375 -2.910156 "/></g></g></g><g fill="#333333" fill-opacity="1"><g transform="translate(69.306267, 58.913723)"><g><path d="M 5.546875 -6.316406 L 5.546875 -7.828125 L 0.835938 -7.828125 L 0.835938 0 L 5.546875 0 L 5.546875 -1.511719 L 2.558594 -1.511719 L 2.558594 -3.15625 L 5.113281 -3.15625 L 5.113281 -4.671875 L 2.558594 -4.671875 L 2.558594 -6.316406 Z M 5.546875 -6.316406 "/></g></g></g><g fill="#333333" fill-opacity="1"><g transform="translate(75.839406, 58.913723)"><g><path d="M 3.183594 0.105469 C 4.644531 0.105469 5.882812 -0.757812 5.882812 -2.21875 C 5.882812 -5.113281 2.285156 -4.398438 2.285156 -5.753906 C 2.285156 -6.199219 2.621094 -6.40625 3.039062 -6.40625 C 3.484375 -6.40625 3.925781 -6.160156 4.320312 -5.726562 L 5.46875 -6.824219 C 4.894531 -7.488281 4.019531 -7.933594 3.054688 -7.933594 C 1.8125 -7.933594 0.546875 -7.1875 0.546875 -5.625 C 0.546875 -2.960938 4.164062 -3.601562 4.164062 -2.230469 C 4.164062 -1.800781 3.796875 -1.511719 3.195312 -1.511719 C 2.480469 -1.511719 1.917969 -1.917969 1.632812 -2.53125 L 0.207031 -1.644531 C 0.71875 -0.664062 1.8125 0.105469 3.183594 0.105469 Z M 3.183594 0.105469 "/></g></g></g><g fill="#333333" fill-opacity="1"><g transform="translate(82.47681, 58.913723)"><g><path d="M 5.597656 -7.828125 L -0.0664062 -7.828125 L -0.0664062 -6.300781 L 1.917969 -6.300781 L 1.917969 0 L 3.628906 0 L 3.628906 -6.300781 L 5.597656 -6.300781 Z M 5.597656 -7.828125 "/></g></g></g><g fill="#333333" fill-opacity="1"><g transform="translate(88.462517, 58.913723)"><g><path d="M 4.855469 -3.222656 C 5.78125 -3.496094 6.433594 -4.359375 6.433594 -5.429688 C 6.433594 -6.757812 5.441406 -7.828125 4.097656 -7.828125 L 0.769531 -7.828125 L 0.769531 0 L 2.492188 0 L 2.492188 -3.027344 L 3.183594 -3.027344 L 5.113281 0 L 7.046875 0 Z M 3.835938 -4.449219 L 2.492188 -4.449219 L 2.492188 -6.300781 L 3.835938 -6.300781 C 4.382812 -6.300781 4.789062 -5.910156 4.789062 -5.375 C 4.789062 -4.828125 4.382812 -4.449219 3.835938 -4.449219 Z M 3.835938 -4.449219 "/></g></g></g><g fill="#333333" fill-opacity="1"><g transform="translate(95.895001, 58.913723)"><g><path d="M 4.5 0.105469 C 6.734375 0.105469 8.519531 -1.695312 8.519531 -3.914062 C 8.519531 -6.132812 6.734375 -7.933594 4.5 -7.933594 C 2.285156 -7.933594 0.484375 -6.132812 0.484375 -3.914062 C 0.484375 -1.695312 2.285156 0.105469 4.5 0.105469 Z M 4.5 -1.578125 C 3.183594 -1.578125 2.179688 -2.597656 2.179688 -3.914062 C 2.179688 -5.230469 3.183594 -6.25 4.5 -6.25 C 5.832031 -6.25 6.835938 -5.230469 6.835938 -3.914062 C 6.835938 -2.597656 5.832031 -1.578125 4.5 -1.578125 Z M 4.5 -1.578125 "/></g></g></g><g fill="#333333" fill-opacity="1"><g transform="translate(31.386704, 67.543524)"><g><path d="M 4.175781 -4.160156 L 2.574219 -0.535156 L 0.976562 -4.160156 L 0.507812 -4.160156 L 0.507812 0 L 0.949219 0 L 0.949219 -3.285156 L 2.386719 0 L 2.753906 0 L 4.203125 -3.273438 L 4.203125 0 L 4.640625 0 L 4.640625 -4.160156 Z M 4.175781 -4.160156 "/></g></g></g><g fill="#333333" fill-opacity="1"><g transform="translate(38.390403, 67.543524)"><g><path d="M 3.015625 0 L 3.5 0 L 1.996094 -4.160156 L 1.503906 -4.160156 L 0 0 L 0.484375 0 L 0.824219 -0.972656 L 2.675781 -0.972656 Z M 0.972656 -1.394531 L 1.753906 -3.632812 L 2.53125 -1.394531 Z M 0.972656 -1.394531 "/></g></g></g><g fill="#333333" fill-opacity="1"><g transform="translate(43.750658, 67.543524)"><g><path d="M 3.496094 -4.160156 L 3.496094 -0.742188 L 0.921875 -4.160156 L 0.507812 -4.160156 L 0.507812 0 L 0.949219 0 L 0.949219 -3.417969 L 3.515625 0 L 3.933594 0 L 3.933594 -4.160156 Z M 3.496094 -4.160156 "/></g></g></g><g fill="#333333" fill-opacity="1"><g transform="translate(50.04705, 67.543524)"><g><path d="M 3.015625 0 L 3.5 0 L 1.996094 -4.160156 L 1.503906 -4.160156 L 0 0 L 0.484375 0 L 0.824219 -0.972656 L 2.675781 -0.972656 Z M 0.972656 -1.394531 L 1.753906 -3.632812 L 2.53125 -1.394531 Z M 0.972656 -1.394531 "/></g></g></g><g fill="#333333" fill-opacity="1"><g transform="translate(55.407305, 67.543524)"><g><path d="M 2.488281 -2.207031 L 2.488281 -1.789062 L 4.160156 -1.789062 C 4.027344 -0.984375 3.335938 -0.386719 2.496094 -0.386719 C 1.558594 -0.386719 0.804688 -1.136719 0.804688 -2.082031 C 0.804688 -3.023438 1.558594 -3.773438 2.496094 -3.773438 C 3.128906 -3.773438 3.683594 -3.433594 3.964844 -2.917969 L 4.347656 -3.132812 C 3.988281 -3.777344 3.292969 -4.214844 2.496094 -4.214844 C 1.3125 -4.214844 0.359375 -3.257812 0.359375 -2.082031 C 0.359375 -0.902344 1.3125 0.0546875 2.496094 0.0546875 C 3.675781 0.0546875 4.632812 -0.902344 4.632812 -2.082031 L 4.632812 -2.207031 Z M 2.488281 -2.207031 "/></g></g></g><g fill="#333333" fill-opacity="1"><g transform="translate(62.251516, 67.543524)"><g><path d="M 2.816406 -3.730469 L 2.816406 -4.160156 L 0.539062 -4.160156 L 0.539062 0 L 2.816406 0 L 2.816406 -0.429688 L 0.984375 -0.429688 L 0.984375 -1.867188 L 2.578125 -1.867188 L 2.578125 -2.296875 L 0.984375 -2.296875 L 0.984375 -3.730469 Z M 2.816406 -3.730469 "/></g></g></g><g fill="#333333" fill-opacity="1"><g transform="translate(67.341331, 67.543524)"><g><path d="M 4.175781 -4.160156 L 2.574219 -0.535156 L 0.976562 -4.160156 L 0.507812 -4.160156 L 0.507812 0 L 0.949219 0 L 0.949219 -3.285156 L 2.386719 0 L 2.753906 0 L 4.203125 -3.273438 L 4.203125 0 L 4.640625 0 L 4.640625 -4.160156 Z M 4.175781 -4.160156 "/></g></g></g><g fill="#333333" fill-opacity="1"><g transform="translate(74.345032, 67.543524)"><g><path d="M 2.816406 -3.730469 L 2.816406 -4.160156 L 0.539062 -4.160156 L 0.539062 0 L 2.816406 0 L 2.816406 -0.429688 L 0.984375 -0.429688 L 0.984375 -1.867188 L 2.578125 -1.867188 L 2.578125 -2.296875 L 0.984375 -2.296875 L 0.984375 -3.730469 Z M 2.816406 -3.730469 "/></g></g></g><g fill="#333333" fill-opacity="1"><g transform="translate(79.434847, 67.543524)"><g><path d="M 3.496094 -4.160156 L 3.496094 -0.742188 L 0.921875 -4.160156 L 0.507812 -4.160156 L 0.507812 0 L 0.949219 0 L 0.949219 -3.417969 L 3.515625 0 L 3.933594 0 L 3.933594 -4.160156 Z M 3.496094 -4.160156 "/></g></g></g><g fill="#333333" fill-opacity="1"><g transform="translate(85.731241, 67.543524)"><g><path d="M 2.808594 -4.160156 L 0.0625 -4.160156 L 0.0625 -3.714844 L 1.214844 -3.714844 L 1.214844 0 L 1.65625 0 L 1.65625 -3.714844 L 2.808594 -3.714844 Z M 2.808594 -4.160156 "/></g></g></g></svg>