<svg xmlns="http://www.w3.org/2000/svg" xmlns:xlink="http://www.w3.org/1999/xlink" width="160" zoomAndPan="magnify" viewBox="0 0 120 119.999999" height="160" preserveAspectRatio="xMidYMid meet" version="1.0"><defs><clipPath id="deac4081f1"><path d="M 24 73 L 45 73 L 45 93.535156 L 24 93.535156 Z M 24 73 " clip-rule="nonzero"/></clipPath><clipPath id="1f73b736fb"><path d="M 16.578125 36 L 68 36 L 68 87 L 16.578125 87 Z M 16.578125 36 " clip-rule="nonzero"/></clipPath><clipPath id="13cf96bcee"><path d="M 75 26.785156 L 96 26.785156 L 96 47 L 75 47 Z M 75 26.785156 " clip-rule="nonzero"/></clipPath><clipPath id="45ef7d777e"><path d="M 52 33 L 103.578125 33 L 103.578125 84 L 52 84 Z M 52 33 " clip-rule="nonzero"/></clipPath></defs><rect x="-12" width="144" fill="#ffffff" y="-12" height="143.999998" fill-opacity="1"/><rect x="-12" width="144" fill="#ffffff" y="-12" height="143.999998" fill-opacity="1"/><g clip-path="url(#deac4081f1)"><path fill="#f4bb29" d="M 34.574219 73.503906 C 40.140625 73.503906 44.652344 77.988281 44.652344 83.515625 C 44.652344 89.042969 40.140625 93.527344 34.574219 93.527344 C 29.007812 93.527344 24.496094 89.042969 24.496094 83.515625 C 24.496094 77.988281 29.007812 73.503906 34.574219 73.503906 " fill-opacity="1" fill-rule="nonzero"/></g><g clip-path="url(#1f73b736fb)"><path fill="#f4bb29" d="M 61.191406 53.914062 L 61.191406 77.488281 L 26.359375 57.511719 L 49.984375 43.964844 C 50.226562 43.828125 50.375 43.570312 50.375 43.292969 L 50.375 37.601562 C 50.375 37.003906 49.726562 36.632812 49.207031 36.929688 L 18.203125 54.707031 C 17.195312 55.285156 16.574219 56.355469 16.574219 57.511719 C 16.574219 58.671875 17.195312 59.742188 18.203125 60.320312 L 62.824219 85.90625 C 63.328125 86.195312 63.890625 86.339844 64.453125 86.339844 C 65.019531 86.339844 65.582031 86.195312 66.085938 85.90625 C 67.09375 85.328125 67.714844 84.257812 67.714844 83.101562 L 67.714844 56.777344 C 67.714844 56.503906 67.566406 56.246094 67.328125 56.109375 L 62.363281 53.246094 C 61.84375 52.949219 61.191406 53.320312 61.191406 53.914062 " fill-opacity="1" fill-rule="nonzero"/></g><g clip-path="url(#13cf96bcee)"><path fill="#001f3f" d="M 85.566406 46.8125 C 80 46.8125 75.488281 42.328125 75.488281 36.800781 C 75.488281 31.273438 80 26.792969 85.566406 26.792969 C 91.132812 26.792969 95.644531 31.273438 95.644531 36.800781 C 95.644531 42.328125 91.132812 46.8125 85.566406 46.8125 " fill-opacity="1" fill-rule="nonzero"/></g><g clip-path="url(#45ef7d777e)"><path fill="#001f3f" d="M 58.949219 66.402344 L 58.949219 42.828125 L 93.785156 62.804688 L 70.15625 76.351562 C 69.917969 76.492188 69.769531 76.746094 69.769531 77.023438 L 69.769531 82.714844 C 69.769531 83.3125 70.417969 83.683594 70.9375 83.386719 L 101.9375 65.609375 C 102.949219 65.03125 103.570312 63.960938 103.570312 62.804688 C 103.570312 61.644531 102.949219 60.578125 101.9375 60 L 57.320312 34.410156 C 56.816406 34.121094 56.25 33.976562 55.6875 33.976562 C 55.125 33.976562 54.5625 34.121094 54.058594 34.410156 C 53.046875 34.988281 52.425781 36.058594 52.425781 37.214844 L 52.425781 63.539062 C 52.425781 63.816406 52.574219 64.070312 52.816406 64.207031 L 57.78125 67.070312 C 58.300781 67.371094 58.949219 66.996094 58.949219 66.402344 " fill-opacity="1" fill-rule="nonzero"/></g></svg>